# xmcd
#
# Track frame offsets:
#	150
#	15205
#	30947
#	46145
#	60542
#	79092
#	94757
#	108545
#	125540
#	146267
#	163055
#	177547
#	194932
#	220352
# Disc length: 3260 seconds
# Revision: 45
# Processed by: cddbd v1.5.2PL0 Copyright (c) Steve Scherf et al.
#
# Submitted via: libkcddb 0.31
#
DISCID=bd0cba0e
DTITLE=Norah Jones - feels like home
DYEAR=2004
DGENRE=Vocal Jazz
TTITLE0=Sunrise
TTITLE1=What Am I To You?
TTITLE2=Those Sweet Words
TTITLE3=Carnival Town
TTITLE4=In the Morning
TTITLE5=Be Here to Love Me
TTITLE6=Creepin' In
TTITLE7=Toes
TTITLE8=Humble Me
TTITLE9=Above Ground
TTITLE10=The Long Way Home
TTITLE11=The Prettiest Thing
TTITLE12=Don't Miss You At All
TTITLE13=Norah Jones - Datatrack
EXTD=
EXTT0=
EXTT1=
EXTT2=
EXTT3=
EXTT4=
EXTT5=
EXTT6=
EXTT7=
EXTT8=
EXTT9=
EXTT10=
EXTT11=
EXTT12=
EXTT13=
PLAYORDER=
